<?xml version="1.0" encoding="UTF-8" standalone="no"?>
<svg width="859px" height="514px" viewBox="0 0 859 514" version="1.1" xmlns="http://www.w3.org/2000/svg" xmlns:xlink="http://www.w3.org/1999/xlink" xmlns:sketch="http://www.bohemiancoding.com/sketch/ns">
    <title>Imported Layers</title>
    <description>Created with Sketch (http://www.bohemiancoding.com/sketch)</description>
    <defs></defs>
    <g id="Page-1" stroke="none" stroke-width="1" fill="none" fill-rule="evenodd" sketch:type="MSPage">
        <g id="Imported-Layers" sketch:type="MSLayerGroup">
            <path d="M199.856605,211.692704 C199.856605,211.692704 22.1187162,324.976158 10.0555628,332.035083 C10.0555628,332.035083 -21.3699267,352 26.8882586,352 L213.858778,352 C364.929575,352 369.843987,205.527314 370,196 L258.584381,196 C223.565019,196 199.856605,211.692704 199.856605,211.692704" id="Fill-1" fill="#21ACC2" sketch:type="MSShapeGroup"></path>
            <path d="M500.751413,14.0538611 C500.751413,14.0538611 496.943476,-4.71291732 486.189684,1.12625564 C475.435891,6.97100565 385.117433,56.0211739 385.117433,56.0211739 C385.117433,56.0211739 364.514372,67.2143163 369.896852,93.7833898 L369.902436,93.8112751 L369.868935,93.8280063 L458.99811,506 L556,304.763249 L500.751413,14.0538611" id="Fill-2" fill="#E73C2F" sketch:type="MSShapeGroup"></path>
            <path d="M330,305 L317,318 C321.744972,313.874786 326.072743,309.526587 330,305" id="Fill-3" fill="#4B0EE2" sketch:type="MSShapeGroup"></path>
            <path d="M330,306 L401,235.506495 L370.288059,94 L370.288059,196.807683 C370.288059,196.807683 370.226423,259.916686 330,306" id="Fill-4" fill="#252525" sketch:type="MSShapeGroup"></path>
            <path d="M330,305 L317,318 C321.744972,313.874786 326.072743,309.526587 330,305" id="Fill-5" fill="#260773" sketch:type="MSShapeGroup"></path>
            <path d="M858.972088,324.655716 C857.432539,299.318655 849.193717,212.063875 849.193717,212.063875 C849.193717,212.063875 847.414311,196 796.023478,196 L672.915297,196.217079 C621.496574,196.217079 594.113789,219.956658 579.527115,245.243624 L579.521537,245.243624 L579.4546,245.366079 L579.092025,246.017317 L537.195082,322.08416 L482,421 L483.199287,420.198476 C504.072455,384.775573 542.77316,351.952057 614.719209,351.952057 L787.985468,351.952057 C787.985468,351.952057 860.628777,351.952057 858.972088,324.655716" id="Fill-6" fill="#21ACC2" sketch:type="MSShapeGroup"></path>
            <path d="M546,365 C517.175216,376.924649 496.178905,398.849717 482.455463,421.410617 C462.564806,454.111373 456.014224,489.95225 458.503334,501.51994 C459.88679,507.961928 459.008934,503.946143 459.358966,505.496682 C461.909192,516.824541 469.826563,518.877053 479.916348,498.898525 L499.829229,458.25544 C515.775091,425.353894 536.021335,385.597628 546,365" id="Fill-7" fill="#252525" sketch:type="MSShapeGroup"></path>
        </g>
    </g>
</svg>