<?xml version="1.0" encoding="UTF-8" standalone="no"?>
<svg width="50px" height="33px" viewBox="0 0 50 33" version="1.1" xmlns="http://www.w3.org/2000/svg" xmlns:xlink="http://www.w3.org/1999/xlink" xmlns:sketch="http://www.bohemiancoding.com/sketch/ns">
    <title>Imported Layers</title>
    <description>Created with Sketch (http://www.bohemiancoding.com/sketch)</description>
    <defs></defs>
    <g id="Page-1" stroke="none" stroke-width="1" fill="none" fill-rule="evenodd" sketch:type="MSPage">
        <g id="Imported-Layers" sketch:type="MSLayerGroup">
            <path d="M50,0 L0,0 L0,17 L8.721,17 L16.555,13.306 L21.388,3.542 L24.365,14.57 L28.638,31.049 L31.555,22.818 L39.805,17.402 L42.405,17 L50,17 L50,0" id="Fill-1" fill="#FFFFFF" sketch:type="MSShapeGroup"></path>
            <path d="M29.857,32 L27.857,32 C27.857,27 31.263,16 44.154,16 L50,16 L50,18 L44.167,18 C30.06,18 29.858,32 29.857,32" id="Fill-2" fill="#21ACC2" sketch:type="MSShapeGroup"></path>
            <path d="M0,18 L0,16 L5.942,16 C20.09,16 20.252,2 20.252,2 L22.252,2 C22.252,7 18.846,18 5.956,18 L0,18" id="Fill-3" fill="#21ACC2" sketch:type="MSShapeGroup"></path>
            <path d="M27.916,32.899 L20.252,1.595 L22.193,1.109 L29.857,32.414 L27.916,32.899" id="Fill-4" fill="#E83B2F" sketch:type="MSShapeGroup"></path>
        </g>
    </g>
</svg>