<?xml version="1.0" encoding="UTF-8"?>
<svg width="50px" height="33px" viewBox="0 0 50 33" version="1.1" xmlns="http://www.w3.org/2000/svg" xmlns:xlink="http://www.w3.org/1999/xlink">
    <!-- Generator: Sketch 40 (33762) - http://www.bohemiancoding.com/sketch -->
    <title>logo-picto</title>
    <desc>Created with Sketch.</desc>
    <defs></defs>
    <g id="Page-1" stroke="none" stroke-width="1" fill="none" fill-rule="evenodd">
        <g id="logo-picto">
            <g id="Page-1">
                <g id="Imported-Layers">
                    <polyline id="Fill-1" fill="#FFFFFF" points="50 0 0 0 0 16.9731714 8.721 16.9731714 16.555 13.2850011 21.388 3.53641019 24.365 14.5470063 28.638 31 31.555 22.7819898 39.805 17.374537 42.405 16.9731714 50 16.9731714 50 0"></polyline>
                    <path d="M29.987084,32 L28,32 C28,27 31.384004,16 44.1917536,16 L50,16 L50,18 L44.2046696,18 C30.188773,18 29.9880775,32 29.987084,32" id="Fill-2" fill="#21ACC2"></path>
                    <path d="M0,18 L0,16 L5.87470789,16 C19.8624843,16 20.0226496,2 20.0226496,2 L22,2 C22,7 18.6325724,18 5.88854934,18 L0,18" id="Fill-3" fill="#21ACC2"></path>
                    <polyline id="Fill-4" fill="#E83B2F" points="27.9791775 33 20 1.48921044 22.0208225 1 30 32.5117962 27.9791775 33"></polyline>
                </g>
            </g>
        </g>
    </g>
</svg>