<?xml version="1.0" encoding="UTF-8" standalone="no"?>
<svg width="616px" height="367px" viewBox="0 0 616 367" version="1.1" xmlns="http://www.w3.org/2000/svg" xmlns:xlink="http://www.w3.org/1999/xlink" xmlns:sketch="http://www.bohemiancoding.com/sketch/ns">
    <title>Imported Layers</title>
    <description>Created with Sketch (http://www.bohemiancoding.com/sketch)</description>
    <defs></defs>
    <g id="Page-1" stroke="none" stroke-width="1" fill="none" fill-rule="evenodd" sketch:type="MSPage">
        <g id="Imported-Layers" sketch:type="MSLayerGroup" transform="translate(-5.000000, -5.000000)" fill="#000000">
            <path d="M149.217429,159.471528 C149.217429,159.471528 20.9565804,242.255475 12.2604789,247.410915 C12.2604789,247.410915 -10.4238471,262 24.4004493,262 L159.322991,262 C196.301367,262 221.11318,249.678229 237.800653,233.132236 C236.417787,234.50882 235.194482,235.979875 233.691944,237.288978 L243.092776,227.774358 C271.96011,194.115544 272,148 272,148 L191.6076,148 C166.3304,148 149.217429,159.471528 149.217429,159.471528" id="Fill-1" sketch:type="MSShapeGroup"></path>
            <path d="M616.925358,160.28361 C616.925358,160.28361 615.649896,148.522337 578.634937,148.522337 L489.963782,148.684004 C452.935537,148.684004 433.219026,166.063205 422.709754,184.574075 L422.696468,184.560602 L422.65661,184.654908 C422.563607,184.816575 422.483891,184.978242 422.390889,185.139909 L403.963126,219.130393 L365.805565,15.268324 C365.805565,15.268324 363.055351,1.55357477 355.322865,5.82427764 C347.590379,10.0949805 282.594981,45.9311623 282.594981,45.9311623 C282.594981,45.9311623 267.76774,54.0953451 271.647269,73.5088556 L271.647269,73.5223279 L271.620696,73.5492724 L293.648982,176.746698 L293.609123,176.773643 L335.194487,372 C335.167914,371.892222 335.167914,371.838333 335.141342,371.717083 C333.334438,363.269983 338.077561,337.093403 352.453077,313.207106 L353.329956,312.614327 C357.050053,306.188065 361.567313,299.883052 367.041169,294.036096 C367.546039,293.497206 368.090767,292.971789 368.608924,292.446371 C369.817955,291.233868 371.026986,290.021366 372.302448,288.862753 C373.697484,287.582889 375.132379,286.32997 376.633703,285.117467 C377.457439,284.457327 378.321033,283.837604 379.17134,283.190936 C379.277629,283.110102 379.397203,283.015797 379.516778,282.934963 C380.393658,282.274823 381.270538,281.628155 382.187276,280.994959 C383.436165,280.132735 384.711627,279.297456 386.01366,278.489121 C386.677963,278.084954 387.355552,277.680786 388.033141,277.290091 C389.45475,276.454812 390.90293,275.633004 392.390969,274.865086 C393.506997,274.299252 394.662885,273.760362 395.818772,273.234944 C396.669079,272.830777 397.506101,272.426609 398.382981,272.049386 C411.841758,266.229375 428.170324,262.672701 448.046268,262.672701 L572.842216,262.672701 C572.842216,262.672701 625.162714,262.672701 623.980255,242.693356 C622.864226,224.142069 616.925358,160.28361 616.925358,160.28361" id="Fill-2" sketch:type="MSShapeGroup"></path>
            <path d="M335.546,373.535 L335,371 C335.312,372.456 335.455,373.093 335.494,373.314 C335.507,373.353 335.52,373.405 335.546,373.535" id="Fill-3" sketch:type="MSShapeGroup"></path>
        </g>
    </g>
</svg>